<svg xmlns="http://www.w3.org/2000/svg" xmlns:xlink="http://www.w3.org/1999/xlink" width="500" zoomAndPan="magnify" viewBox="0 0 375 374.999991" height="500" preserveAspectRatio="xMidYMid meet" version="1.0"><defs><clipPath id="741850f217"><path d="M 35.1875 35.1875 L 339.8125 35.1875 L 339.8125 339.8125 L 35.1875 339.8125 Z M 35.1875 35.1875 " clip-rule="nonzero"/></clipPath><clipPath id="0651f2c31c"><path d="M 187.5 35.1875 C 103.378906 35.1875 35.1875 103.378906 35.1875 187.5 C 35.1875 271.621094 103.378906 339.8125 187.5 339.8125 C 271.621094 339.8125 339.8125 271.621094 339.8125 187.5 C 339.8125 103.378906 271.621094 35.1875 187.5 35.1875 Z M 187.5 35.1875 " clip-rule="nonzero"/></clipPath><clipPath id="0b22037ea0"><path d="M 115.1875 167 L 239 167 L 239 287.492188 L 115.1875 287.492188 Z M 115.1875 167 " clip-rule="nonzero"/></clipPath><clipPath id="cd52720133"><path d="M 115.1875 87.242188 L 259.9375 87.242188 L 259.9375 223 L 115.1875 223 Z M 115.1875 87.242188 " clip-rule="nonzero"/></clipPath></defs><g clip-path="url(#741850f217)"><g clip-path="url(#0651f2c31c)"><path fill="#c7e8f4" d="M 35.1875 35.1875 L 339.8125 35.1875 L 339.8125 339.8125 L 35.1875 339.8125 Z M 35.1875 35.1875 " fill-opacity="1" fill-rule="nonzero"/></g></g><g clip-path="url(#0b22037ea0)"><path fill="#6bd7fc" d="M 135.496094 287.683594 C 124.285156 287.683594 115.1875 278.585938 115.1875 267.375 L 115.1875 248.652344 C 115.1875 203.636719 151.695312 167.1875 196.65625 167.1875 L 238.09375 167.1875 L 238.09375 207.804688 L 196.65625 207.804688 C 174.117188 207.804688 155.804688 226.117188 155.804688 248.652344 L 155.804688 267.375 C 155.804688 278.585938 146.707031 287.683594 135.496094 287.683594 Z M 135.496094 287.683594 " fill-opacity="1" fill-rule="nonzero"/></g><g clip-path="url(#cd52720133)"><path fill="#0e80b2" d="M 256.640625 192.777344 L 225.355469 220.597656 C 220.835938 224.648438 213.617188 221.417969 213.617188 215.316406 L 213.617188 207.804688 L 196.65625 207.804688 C 151.695312 207.804688 115.1875 171.355469 115.1875 126.335938 L 115.1875 107.613281 C 115.1875 96.402344 124.285156 87.304688 135.496094 87.304688 C 146.707031 87.304688 155.804688 96.402344 155.804688 107.613281 L 155.804688 126.335938 C 155.804688 148.875 174.117188 167.1875 196.65625 167.1875 L 213.617188 167.1875 L 213.617188 159.675781 C 213.617188 153.570312 220.777344 150.34375 225.355469 154.390625 L 256.640625 182.210938 C 259.808594 185.03125 259.808594 189.960938 256.640625 192.777344 Z M 256.640625 192.777344 " fill-opacity="1" fill-rule="nonzero"/></g></svg>